<svg width="1080" height="1920" xmlns="http://www.w3.org/2000/svg">
  <defs>
    <linearGradient id="skyGradient" x1="0%" y1="0%" x2="0%" y2="100%">
      <stop offset="0%" style="stop-color:#87CEEB"/>
      <stop offset="50%" style="stop-color:#98D8E8"/>
      <stop offset="100%" style="stop-color:#B0E2FF"/>
    </linearGradient>
    <radialGradient id="cloudGradient" cx="50%" cy="50%" r="50%">
      <stop offset="0%" style="stop-color:#FFFFFF"/>
      <stop offset="100%" style="stop-color:#F0F8FF"/>
    </radialGradient>
  </defs>
  
  <!-- Sky background -->
  <rect x="0" y="0" width="1080" height="1920" fill="url(#skyGradient)"/>
  
  <!-- Clouds -->
  <ellipse cx="200" cy="300" rx="80" ry="40" fill="url(#cloudGradient)" opacity="0.8"/>
  <ellipse cx="180" cy="310" rx="60" ry="30" fill="url(#cloudGradient)" opacity="0.8"/>
  <ellipse cx="220" cy="315" rx="50" ry="25" fill="url(#cloudGradient)" opacity="0.8"/>
  
  <ellipse cx="800" cy="500" rx="100" ry="50" fill="url(#cloudGradient)" opacity="0.7"/>
  <ellipse cx="770" cy="510" rx="70" ry="35" fill="url(#cloudGradient)" opacity="0.7"/>
  <ellipse cx="830" cy="515" rx="60" ry="30" fill="url(#cloudGradient)" opacity="0.7"/>
  
  <ellipse cx="400" cy="800" rx="90" ry="45" fill="url(#cloudGradient)" opacity="0.6"/>
  <ellipse cx="370" cy="810" rx="65" ry="32" fill="url(#cloudGradient)" opacity="0.6"/>
  
  <!-- Mountain silhouettes at bottom -->
  <polygon points="0,1600 300,1400 600,1500 900,1300 1080,1400 1080,1920 0,1920" 
           fill="#4F4F4F" opacity="0.3"/>
  <polygon points="200,1650 500,1450 800,1550 1080,1450 1080,1920 0,1920" 
           fill="#6F6F6F" opacity="0.2"/>
</svg>